<svg width="48" height="48" xmlns="http://www.w3.org/2000/svg" xmlns:xlink="http://www.w3.org/1999/xlink" xml:space="preserve" overflow="hidden"><defs><clipPath id="clip0"><rect x="365" y="153" width="48" height="48"/></clipPath></defs><g clip-path="url(#clip0)" transform="translate(-365 -153)"><path d="M364.926 152.926C380.926 152.926 396.926 152.926 412.926 152.926 412.926 168.926 412.926 184.926 412.926 200.926 396.926 200.926 380.926 200.926 364.926 200.926 364.926 184.926 364.926 168.926 364.926 152.926Z" fill="#FCFCFC" fill-rule="evenodd"/><path d="M376.298 163.56C384.569 163.535 392.84 163.56 401.111 163.634 402.5 164.088 403.46 164.999 403.991 166.366 404.089 173.702 404.089 181.037 403.991 188.372 403.705 189.496 402.991 190.16 401.849 190.366 393.48 190.465 385.111 190.465 376.742 190.366 375.239 190.097 374.279 189.235 373.862 187.782 373.763 180.594 373.763 173.406 373.862 166.218 374.349 165.018 375.161 164.132 376.298 163.56Z" fill="#080808" fill-rule="evenodd"/><path d="M402.292 166.809C402.341 171.807 402.292 176.779 402.145 181.726 400.363 180.281 398.566 178.854 396.754 177.443 395.277 178.625 393.8 179.806 392.323 180.988 390.7 179.242 389.051 177.518 387.375 175.818 383.456 178.491 379.567 181.199 375.708 183.942 375.56 178.256 375.511 172.545 375.56 166.809 375.695 166.107 376.089 165.59 376.742 165.258 384.766 165.16 392.791 165.16 400.815 165.258 401.541 165.565 402.033 166.082 402.292 166.809Z" fill="#FBFBFB" fill-rule="evenodd"/><path d="M375.56 166.809C375.511 172.545 375.56 178.256 375.708 183.942 375.699 184.022 375.65 184.071 375.56 184.089 375.363 178.305 375.363 172.545 375.56 166.809Z" fill="#AAAAAA" fill-rule="evenodd"/><path d="M393.578 168.138C396.479 168.158 397.685 169.586 397.197 172.422 396.19 174.169 394.738 174.686 392.84 173.972 391.22 172.776 390.851 171.275 391.732 169.468 392.272 168.893 392.887 168.45 393.578 168.138Z" fill="#0B0B0B" fill-rule="evenodd"/><path d="M402.292 166.809C402.489 171.807 402.489 176.828 402.292 181.874 402.203 181.856 402.153 181.806 402.145 181.726 402.292 176.779 402.341 171.807 402.292 166.809Z" fill="#DADADA" fill-rule="evenodd"/><path d="M393.578 169.911C394.732 169.649 395.47 170.068 395.794 171.166 395.547 172.398 394.808 172.841 393.578 172.495 392.797 171.634 392.797 170.773 393.578 169.911Z" fill="#F3F3F3" fill-rule="evenodd"/><path d="M386.932 177.886C387.392 177.973 387.761 178.22 388.04 178.625 389.364 180.195 390.742 181.721 392.175 183.203 393.628 181.948 395.08 180.692 396.532 179.437 396.795 179.443 397.041 179.542 397.271 179.732 398.928 181.188 400.627 182.591 402.366 183.942 402.502 185.429 402.453 186.906 402.218 188.372 402.108 188.465 401.985 188.539 401.849 188.594 393.48 188.692 385.111 188.692 376.742 188.594 376.088 188.482 375.67 188.113 375.486 187.486 375.388 186.994 375.388 186.501 375.486 186.009 379.298 183.28 383.114 180.573 386.932 177.886Z" fill="#FBFBFB" fill-rule="evenodd"/></g></svg>